<?xml version="1.0" encoding="utf-8" ?><svg xmlns="http://www.w3.org/2000/svg" xmlns:xlink="http://www.w3.org/1999/xlink" width="1024" height="1024" viewBox="0 0 1024 1024"><path fill="#DD6746" d="M507.341 421.764C556.278 418.961 598.205 456.395 600.942 505.335C603.68 554.275 566.188 596.152 517.245 598.823C468.394 601.489 426.616 564.085 423.884 515.239C421.152 466.392 458.499 424.563 507.341 421.764ZM517.249 559.693C544.793 557.037 564.883 532.426 561.969 504.909C559.056 477.391 534.258 457.532 506.769 460.703C479.641 463.832 460.1 488.233 462.975 515.389C465.85 542.545 490.068 562.314 517.249 559.693Z"/><path fill="#3662E2" d="M506.235 290.779C528.644 287.217 549.703 302.48 553.293 324.884C556.883 347.289 541.646 368.367 519.246 371.984C496.807 375.608 475.684 360.339 472.088 337.895C468.492 315.451 483.787 294.347 506.235 290.779Z"/><path fill="#3662E2" d="M666.663 379.256C688.917 378.26 707.798 395.423 708.923 417.671C710.048 439.919 692.995 458.9 670.754 460.153C648.33 461.418 629.159 444.193 628.025 421.762C626.891 399.331 644.226 380.261 666.663 379.256Z"/><path fill="#3662E2" d="M505.855 654.232C527.911 650.55 548.776 665.441 552.463 687.496C556.15 709.55 541.263 730.419 519.21 734.111C497.149 737.804 476.273 722.911 472.584 700.85C468.896 678.789 483.793 657.915 505.855 654.232Z"/><path fill="#3662E2" d="M350.025 379.816C364.437 377.61 378.921 383.328 387.94 394.784C396.959 406.239 399.118 421.661 393.592 435.153C388.067 448.645 375.71 458.121 361.246 459.959C339.275 462.75 319.142 447.36 316.071 425.427C313 403.493 328.132 383.166 350.025 379.816Z"/><path fill="#3662E2" d="M350.793 564.278C372.855 561.251 393.193 576.685 396.214 598.748C399.236 620.81 383.798 641.144 361.735 644.161C339.678 647.177 319.352 631.745 316.331 609.689C313.31 587.633 328.738 567.303 350.793 564.278Z"/><path fill="#3662E2" d="M661.549 564.779C683.46 560.994 704.292 575.687 708.08 597.598C711.868 619.51 697.178 640.344 675.267 644.134C653.352 647.926 632.513 633.232 628.724 611.317C624.936 589.401 639.632 568.564 661.549 564.779Z"/><path fill="#3662E2" d="M609.87 494.8C638.024 500.892 660.467 514.494 674.12 540.689C675.711 543.742 680.222 551.856 679.234 555.041L678.275 555.256C667.509 554.458 663.825 554.921 653.33 556.961C643.394 536.097 633.405 526.839 610.772 520.624C610.734 512.009 610.433 503.397 609.87 494.8Z"/><path fill="#3662E2" d="M369.823 468.085C370.174 467.985 371.649 467.877 371.703 467.914C375.428 470.455 379.17 479.023 382.047 482.336C391.67 493.417 401.215 497.007 414.554 501.651C414.334 508.97 414.004 520.152 415.737 527.032C407.696 525.279 402.748 524.264 395.025 521.374C369.92 513.846 354.684 490.704 343.679 468.639C353.68 470.693 359.875 470.501 369.823 468.085Z"/><path fill="#3662E2" d="M572.546 588.828C573.3 588.871 573.168 588.937 573.913 589.328C576.013 593.16 577.173 601.436 577.907 606.029C582.26 633.273 575.239 653.193 559.393 675.034L555.469 668.387C551.557 662.736 549.531 660.441 544.427 655.748C552.122 636.714 555.427 622.252 549.887 601.631C557.554 597.569 565.11 593.3 572.546 588.828Z"/><path fill="#3662E2" d="M452.323 588.399C458.616 593.02 467.349 597.569 474.278 601.237C469.509 624.727 471.89 633.6 481.509 654.847C476.639 659.35 474.627 661.538 470.905 666.991C469.408 669.42 467.863 671.819 466.272 674.187C444.593 652.355 443.538 616.128 452.323 588.399Z"/><path fill="#3662E2" d="M558.506 355.822C562.071 358.536 565.397 362.976 567.548 366.886C578.392 386.596 580.146 411.621 574.069 433.01L567.04 428.07C562.262 424.981 556.7 422.405 551.56 419.918C552.735 398.731 550.815 394.031 542.997 374.471C550.941 367.742 553.615 364.953 558.506 355.822Z"/><path fill="#3662E2" d="M466.857 357.249C467.566 357.446 480.464 372.189 482.512 374.291C472.461 388.784 472.876 403.968 472.53 420.722C467.277 422.909 462.189 425.472 457.305 428.392C454.455 430.281 451.474 432.681 448.74 434.787C443.725 406.539 446.984 379.338 466.857 357.249Z"/><path fill="#3662E2" d="M604.79 390.695C609.548 389.84 621.776 390.643 626.714 391.087C621.159 401.594 620.443 404.649 618.21 416.325C612.982 416.064 608.721 416.6 603.607 417.486C597.694 418.264 591.503 420.687 585.869 422.726C587.473 412.896 586.997 403.732 586.344 393.883C593.244 392.094 597.693 391.275 604.79 390.695Z"/><path fill="#3662E2" d="M397.624 390.742C411.552 389.441 425.599 390.858 438.987 394.914C437.403 401.312 437.07 411.952 436.635 418.88C436.582 419.865 436.532 419.833 436.271 420.801C433.499 420.709 428.162 418.306 425.111 417.637C418.894 416.273 412.977 415.903 406.663 415.969C404.609 406.097 402.731 399.617 397.624 390.742Z"/><path fill="#3662E2" d="M369.271 518.79C375.838 522.182 382.453 525.952 388.926 529.541C379.357 539.671 375.971 544.397 370.781 557.197C367.859 556.069 366.297 555.753 363.296 555.104C356.556 554.366 350.508 554.947 343.869 556.196C349.593 542.568 357.97 528.581 369.271 518.79Z"/><path fill="#3662E2" d="M436.761 599.916L437.479 599.98C438.761 602.015 437.675 621.825 437.516 625.641C425.64 629.081 414.295 631.199 401.876 631.522C401 631.466 401.423 631.609 400.641 631.002C400.533 628.544 406.087 611.393 406.888 606.634C419.27 605.232 425.297 604.584 436.761 599.916Z"/><path fill="#3662E2" d="M586.665 600.746C600.752 604.047 603.425 605.079 617.85 605.039C618.811 615.048 621.102 620.391 624.498 629.763L623.891 630.455C607.781 630.949 603.621 630.121 588.404 628.859C589.47 618.79 588.187 610.585 586.665 600.746Z"/><path fill="#3662E2" d="M653.088 467.296C662.851 470.411 668.086 470.25 678.302 469.711C674.364 481.909 667.267 491.175 658.876 500.644C658.212 501.53 655.998 503.767 655.139 504.685C650.299 500.342 641.679 495.64 635.911 492.252C644.014 484.55 648.542 477.262 653.088 467.296Z"/></svg>